<svg width="29" height="44" viewBox="0 0 29 44" fill="none" xmlns="http://www.w3.org/2000/svg">
<path d="M13.98 0.220215C16.14 0.220215 18.08 0.680215 19.8 1.60021C21.56 2.48022 23.04 3.70022 24.24 5.26022C25.48 6.82022 26.42 8.58022 27.06 10.5402C27.74 12.4602 28.08 14.4802 28.08 16.6002C28.08 17.9602 27.92 19.6202 27.6 21.5802C27.32 23.5402 26.8 25.6202 26.04 27.8202C25.28 29.9802 24.22 32.1002 22.86 34.1802C21.5 36.2202 19.76 38.0602 17.64 39.7002C15.56 41.3402 13 42.5802 9.96 43.4202C9.48 43.5402 9.02 43.6002 8.58 43.6002C7.66 43.6002 6.82 43.3602 6.06 42.8802C5.34 42.3602 4.98 41.4802 4.98 40.2402C4.98 39.3202 5.26 38.5402 5.82 37.9002C6.42 37.2602 7.2 36.8002 8.16 36.5202C10 35.9602 11.78 35.0402 13.5 33.7602C15.26 32.4402 16.78 30.8602 18.06 29.0202C19.34 27.1402 20.2 25.1002 20.64 22.9002L22.26 22.9602C21.74 23.6002 21.06 24.3202 20.22 25.1202C19.42 25.9202 18.42 26.6202 17.22 27.2202C16.06 27.7802 14.66 28.0602 13.02 28.0602C10.38 28.0602 8.08 27.5002 6.12 26.3802C4.2 25.2202 2.7 23.6002 1.62 21.5202C0.54 19.4002 0 16.9402 0 14.1402C0 11.6202 0.62 9.30022 1.86 7.18022C3.14 5.06022 4.84 3.38022 6.96 2.14022C9.08 0.860215 11.42 0.220215 13.98 0.220215ZM13.98 6.82022C12.7 6.82022 11.54 7.16022 10.5 7.84022C9.5 8.48022 8.7 9.36022 8.1 10.4802C7.5 11.5602 7.2 12.7802 7.2 14.1402C7.2 15.6202 7.48 16.9202 8.04 18.0402C8.6 19.1202 9.38 19.9602 10.38 20.5602C11.42 21.1602 12.62 21.4602 13.98 21.4602C15.26 21.4602 16.4 21.1402 17.4 20.5002C18.44 19.8602 19.26 18.9802 19.86 17.8602C20.46 16.7402 20.76 15.5002 20.76 14.1402C20.76 12.7402 20.46 11.5002 19.86 10.4202C19.26 9.30022 18.44 8.42022 17.4 7.78022C16.4 7.14022 15.26 6.82022 13.98 6.82022Z" fill="black"/>
</svg>
